<svg width="101" height="22" viewBox="0 0 101 22" fill="none" xmlns="http://www.w3.org/2000/svg">
<g clip-path="url(#clip0_221_34)">
<path d="M53.1899 18.3333L57.9089 6.16125C58.1766 5.4444 58.5734 4.92827 59.0994 4.61286C59.6348 4.28789 60.3616 4.20665 61.2795 4.36914L66.6582 18.3333H63.89L62.8142 15.4659C62.4126 15.4659 61.9776 15.4659 61.509 15.4659C61.0405 15.4564 60.615 15.485 60.2325 15.5519C59.85 15.6188 59.5488 15.7335 59.3288 15.896C59.1185 16.0681 59.0659 16.3357 59.1711 16.6989C58.693 16.5651 58.3296 16.3596 58.081 16.0824C57.8324 15.8052 57.6794 15.5137 57.622 15.2078C57.5742 14.902 57.6077 14.5961 57.7224 14.2903C57.8467 13.994 58.0284 13.7455 58.2674 13.5448C58.4969 13.344 58.7551 13.2007 59.042 13.1147C59.3288 13.0286 59.6301 12.9665 59.9456 12.9283C60.2612 12.8996 60.5815 12.8853 60.9066 12.8853C61.2222 12.8948 61.5281 12.8996 61.8246 12.8996L59.9313 8.0824C59.5105 9.16244 59.1328 10.1278 58.7981 10.9785C58.473 11.8291 58.1575 12.6415 57.8515 13.4157C57.5551 14.1804 57.2586 14.9546 56.9622 15.7383C56.6562 16.5221 56.3215 17.3871 55.9582 18.3333H53.1899ZM71.0759 7.9677V9.14333C71.1907 8.90438 71.3533 8.69888 71.5636 8.52684C71.774 8.3548 72.013 8.21143 72.2808 8.09673C72.5485 7.98204 72.8258 7.89124 73.1127 7.82433C73.39 7.75743 73.6482 7.71442 73.8872 7.6953C74.4036 7.65707 74.9104 7.72397 75.4076 7.89602C75.9144 8.0585 76.3686 8.35002 76.7702 8.77057C76.885 8.90438 76.9949 9.03819 77.1001 9.172C77.1957 9.31537 77.277 9.47308 77.3439 9.64512C77.3822 9.34882 77.5017 9.08598 77.7025 8.85659C77.9033 8.61764 78.1472 8.41692 78.434 8.25444C78.7305 8.0824 79.046 7.95336 79.3807 7.86734C79.7154 7.77176 80.0405 7.71442 80.356 7.6953C80.8819 7.65707 81.3935 7.72397 81.8907 7.89602C82.3975 8.0585 82.8661 8.35002 83.2964 8.77057C83.8988 9.39184 84.2 10.2951 84.2 11.4802V18.3333H81.5895C81.5895 18.1135 81.5895 17.8076 81.5895 17.4157C81.5895 17.0239 81.5848 16.5985 81.5752 16.1397C81.5656 15.681 81.5609 15.2031 81.5609 14.7061C81.5609 14.209 81.5561 13.7407 81.5465 13.301C81.5274 12.8614 81.5083 12.4647 81.4891 12.1111C81.47 11.767 81.4461 11.5137 81.4174 11.3512C81.274 10.4814 80.7863 10.0274 79.9544 9.98921C79.4859 9.97965 79.0938 10.1135 78.7783 10.3906C78.4627 10.6678 78.3145 11.0071 78.3336 11.4086C78.2093 11.3703 78.0898 11.3034 77.975 11.2078C77.8507 11.1027 77.7408 10.9832 77.6452 10.8494C77.6643 10.9546 77.6738 11.0597 77.6738 11.1648C77.6738 11.2604 77.6738 11.3656 77.6738 11.4802V18.3333H75.0921C75.0921 18.1135 75.0968 17.8076 75.1064 17.4157C75.116 17.0239 75.1207 16.5985 75.1207 16.1397C75.1207 15.681 75.1207 15.2031 75.1207 14.7061C75.1207 14.209 75.1112 13.7407 75.0921 13.301C75.0825 12.8614 75.0634 12.4647 75.0347 12.1111C75.006 11.767 74.9725 11.5137 74.9343 11.3512C74.8291 10.9211 74.6283 10.6009 74.3319 10.3906C74.0354 10.1804 73.7151 10.0752 73.3709 10.0752C72.9023 10.0752 72.539 10.1995 72.2808 10.448C72.0322 10.6869 71.9079 11.0071 71.9079 11.4086C71.7453 11.3608 71.5827 11.2509 71.4202 11.0788C71.2576 10.9163 71.1429 10.7395 71.0759 10.5483V18.3333H68.4655V7.9677H71.0759ZM86.6097 18.3333V10.0466C86.6288 9.64512 86.7101 9.31059 86.8535 9.04297C86.9969 8.77535 87.1834 8.56029 87.4129 8.39781C87.6328 8.24488 87.8958 8.13019 88.2018 8.05372C88.4982 7.97726 88.8281 7.93903 89.1915 7.93903V18.3333H86.6097ZM87.9149 3.66663C88.3643 3.66663 88.7516 3.83389 89.0767 4.16842C89.4114 4.49339 89.5787 4.89004 89.5787 5.35838C89.5787 5.82672 89.4162 6.22816 89.091 6.56268C88.9094 6.74428 88.6942 6.87332 88.4456 6.94978C88.197 7.02624 87.9484 7.09793 87.6998 7.16483C87.4511 7.2413 87.2216 7.3321 87.0113 7.43724C86.8105 7.53282 86.667 7.6953 86.581 7.92469C86.514 7.70486 86.4423 7.42768 86.3658 7.09315C86.2989 6.75862 86.2559 6.41454 86.2367 6.06089C86.2176 5.69769 86.2367 5.34405 86.2941 4.99996C86.3515 4.65587 86.4949 4.37391 86.7244 4.15408C87.0495 3.82911 87.4464 3.66663 87.9149 3.66663ZM94.1686 7.93903V9.14333C94.2833 8.90438 94.4506 8.69888 94.6706 8.52684C94.8905 8.3548 95.1343 8.20665 95.4021 8.0824C95.6698 7.95814 95.9423 7.86256 96.2196 7.79566C96.5065 7.72875 96.7695 7.69052 97.0085 7.68096C97.5153 7.65229 98.0173 7.72397 98.5145 7.89602C99.0118 8.0585 99.466 8.35002 99.8772 8.77057C100.48 9.39184 100.781 10.2951 100.781 11.4802V18.3333H98.2133C98.2133 18.1135 98.2133 17.8076 98.2133 17.4157C98.2229 17.0239 98.2277 16.5985 98.2277 16.1397C98.2277 15.681 98.2277 15.2031 98.2277 14.7061C98.2277 14.209 98.2229 13.7407 98.2133 13.301C98.1942 12.8614 98.1751 12.4647 98.156 12.1111C98.1273 11.767 98.0938 11.5137 98.0556 11.3512C97.9408 10.9211 97.7352 10.6009 97.4388 10.3906C97.1328 10.1804 96.8077 10.0752 96.4635 10.0752C96.0045 10.0752 95.6507 10.1995 95.4021 10.448C95.1439 10.6869 95.0148 11.0071 95.0148 11.4086C94.8522 11.3608 94.6945 11.2509 94.5415 11.0788C94.3789 10.9163 94.2546 10.7395 94.1686 10.5483V11.0932V18.3333H91.5868V7.93903H94.1686Z" fill="#22272B"/>
<path d="M10.2269 0.825091L0.0610352 11.1211L10.2264 21.4161C10.4454 21.6392 10.7067 21.8163 10.995 21.9373C11.2832 22.0583 11.5927 22.1206 11.9054 22.1207C12.218 22.1208 12.5275 22.0587 12.8159 21.9379C13.1042 21.8171 13.3656 21.6401 13.5848 21.4172C14.0307 20.9637 14.2807 20.3534 14.2809 19.7175C14.2811 19.0816 14.0315 18.4711 13.5859 18.0174L7.14115 11.4934L5.19631 12.7213L13.5864 4.22385C14.0332 3.77119 14.283 3.16038 14.2814 2.52447C14.2827 1.8881 14.0325 1.27697 13.5853 0.824019C13.3661 0.601208 13.1047 0.424264 12.8164 0.303515C12.528 0.182765 12.2185 0.120628 11.9059 0.120728C11.5933 0.120828 11.2838 0.183163 10.9955 0.304097C10.7073 0.425031 10.446 0.60214 10.2269 0.825091ZM38.1943 0.825628L48.3602 11.1211L38.1948 21.4161C37.9758 21.6392 37.7145 21.8163 37.4262 21.9373C37.138 22.0583 36.8285 22.1206 36.5158 22.1207C36.2032 22.1208 35.8936 22.0587 35.6053 21.9379C35.3169 21.8171 35.0556 21.6401 34.8364 21.4172C34.3904 20.9637 34.1405 20.3534 34.1403 19.7175C34.1401 19.0816 34.3897 18.4711 34.8353 18.0174L41.28 11.494L43.2249 12.7218L34.8343 4.22439C34.3874 3.77172 34.1376 3.16092 34.1393 2.52501C34.138 1.88864 34.3881 1.27751 34.8353 0.824555C35.0545 0.601597 35.3159 0.424526 35.6043 0.303687C35.8927 0.182847 36.2023 0.120662 36.515 0.120761C36.8277 0.120861 37.1373 0.183245 37.4256 0.304269C37.7139 0.425292 37.9752 0.60253 38.1943 0.825628ZM30.0596 1.65386C29.8284 1.06091 29.372 0.583442 28.7899 0.325683C28.5044 0.198216 28.1964 0.128878 27.8838 0.121716C27.5712 0.114554 27.2604 0.169713 26.9693 0.283972C26.6783 0.398231 26.413 0.569298 26.1888 0.787188C25.9647 1.00508 25.7862 1.26542 25.6639 1.55301L18.2473 18.7517C17.9969 19.3363 17.9877 19.996 18.2215 20.5874C18.4527 21.1803 18.9091 21.6578 19.4912 21.9155C19.7767 22.043 20.0847 22.1123 20.3973 22.1195C20.7099 22.1267 21.0208 22.0715 21.3118 21.9573C21.6028 21.843 21.8681 21.6719 22.0923 21.454C22.3164 21.2361 22.4949 20.9758 22.6173 20.6882L30.0339 3.48949C30.2842 2.90493 30.2935 2.24521 30.0596 1.65386Z" fill="#22272B"/>
</g>
<defs>
<clipPath id="clip0_221_34">
<rect width="101" height="22" fill="white"/>
</clipPath>
</defs>
</svg>
