<svg data-v-423bf9ae="" xmlns="http://www.w3.org/2000/svg" viewBox="0 0 413 90" class="iconLeft"><!----><!----><!----><g data-v-423bf9ae="" id="a3ffb17f-f719-4ac8-89bf-b5b45a374a34" fill="#22272b" transform="matrix(5.865102354978818,0,0,5.865102354978818,214.21589864331452,-4.2961850936329355)"><path d="M0.56 13.52L3.85 5.03L3.85 5.03Q4.13 4.28 4.68 3.95L4.68 3.95L4.68 3.95Q5.24 3.61 6.20 3.78L6.20 3.78L9.95 13.52L8.02 13.52L7.27 11.52L7.27 11.52Q6.85 11.52 6.36 11.52L6.36 11.52L6.36 11.52Q5.87 11.51 5.47 11.58L5.47 11.58L5.47 11.58Q5.07 11.65 4.84 11.82L4.84 11.82L4.84 11.82Q4.62 12.00 4.73 12.38L4.73 12.38L4.73 12.38Q4.23 12.24 3.97 11.95L3.97 11.95L3.97 11.95Q3.71 11.66 3.65 11.34L3.65 11.34L3.65 11.34Q3.60 11.02 3.72 10.70L3.72 10.70L3.72 10.70Q3.85 10.39 4.10 10.18L4.10 10.18L4.10 10.18Q4.34 9.97 4.64 9.88L4.64 9.88L4.64 9.88Q4.94 9.79 5.27 9.75L5.27 9.75L5.27 9.75Q5.60 9.72 5.94 9.72L5.94 9.72L5.94 9.72Q6.27 9.73 6.58 9.73L6.58 9.73L5.26 6.37L5.26 6.37Q4.82 7.50 4.47 8.39L4.47 8.39L4.47 8.39Q4.13 9.28 3.81 10.09L3.81 10.09L3.81 10.09Q3.50 10.89 3.19 11.71L3.19 11.71L3.19 11.71Q2.87 12.53 2.49 13.52L2.49 13.52L0.56 13.52ZM13.03 6.29L13.03 7.11L13.03 7.11Q13.15 6.86 13.37 6.68L13.37 6.68L13.37 6.68Q13.59 6.50 13.87 6.38L13.87 6.38L13.87 6.38Q14.15 6.26 14.45 6.19L14.45 6.19L14.45 6.19Q14.74 6.12 14.99 6.10L14.99 6.10L14.99 6.10Q15.53 6.06 16.05 6.24L16.05 6.24L16.05 6.24Q16.58 6.41 17.00 6.85L17.00 6.85L17.00 6.85Q17.12 6.99 17.23 7.13L17.23 7.13L17.23 7.13Q17.33 7.28 17.40 7.46L17.40 7.46L17.40 7.46Q17.44 7.15 17.65 6.91L17.65 6.91L17.65 6.91Q17.86 6.66 18.16 6.49L18.16 6.49L18.16 6.49Q18.47 6.31 18.82 6.22L18.82 6.22L18.82 6.22Q19.17 6.12 19.50 6.10L19.50 6.10L19.50 6.10Q20.05 6.06 20.57 6.24L20.57 6.24L20.57 6.24Q21.10 6.41 21.55 6.85L21.55 6.85L21.55 6.85Q22.18 7.50 22.18 8.74L22.18 8.74L22.18 13.52L20.36 13.52L20.36 13.52Q20.36 13.29 20.36 12.88L20.36 12.88L20.36 12.88Q20.36 12.47 20.35 11.99L20.35 11.99L20.35 11.99Q20.34 11.51 20.34 10.99L20.34 10.99L20.34 10.99Q20.34 10.47 20.33 10.01L20.33 10.01L20.33 10.01Q20.31 9.55 20.29 9.18L20.29 9.18L20.29 9.18Q20.27 8.82 20.24 8.65L20.24 8.65L20.24 8.65Q20.09 7.74 19.22 7.70L19.22 7.70L19.22 7.70Q18.73 7.69 18.40 7.98L18.40 7.98L18.40 7.98Q18.07 8.27 18.09 8.69L18.09 8.69L18.09 8.69Q17.96 8.65 17.84 8.55L17.84 8.55L17.84 8.55Q17.71 8.44 17.61 8.30L17.61 8.30L17.61 8.30Q17.63 8.41 17.63 8.52L17.63 8.52L17.63 8.52Q17.63 8.62 17.63 8.74L17.63 8.74L17.63 13.52L15.83 13.52L15.83 13.52Q15.83 13.29 15.84 12.88L15.84 12.88L15.84 12.88Q15.85 12.47 15.85 11.99L15.85 11.99L15.85 11.99Q15.85 11.51 15.85 10.99L15.85 10.99L15.85 10.99Q15.85 10.47 15.83 10.01L15.83 10.01L15.83 10.01Q15.82 9.55 15.79 9.18L15.79 9.18L15.79 9.18Q15.76 8.82 15.72 8.65L15.72 8.65L15.72 8.65Q15.61 8.20 15.30 7.98L15.30 7.98L15.30 7.98Q14.99 7.76 14.63 7.76L14.63 7.76L14.63 7.76Q14.14 7.76 13.87 8.02L13.87 8.02L13.87 8.02Q13.61 8.27 13.61 8.69L13.61 8.69L13.61 8.69Q13.44 8.64 13.27 8.46L13.27 8.46L13.27 8.46Q13.10 8.29 13.03 8.09L13.03 8.09L13.03 13.52L11.21 13.52L11.21 6.29L13.03 6.29ZM23.86 13.52L23.86 7.74L23.86 7.74Q23.88 7.32 24.03 7.04L24.03 7.04L24.03 7.04Q24.18 6.76 24.42 6.59L24.42 6.59L24.42 6.59Q24.65 6.43 24.97 6.35L24.97 6.35L24.97 6.35Q25.28 6.27 25.66 6.27L25.66 6.27L25.66 13.52L23.86 13.52ZM24.77 3.29L24.77 3.29L24.77 3.29Q25.24 3.29 25.58 3.64L25.58 3.64L25.58 3.64Q25.93 3.98 25.93 4.47L25.93 4.47L25.93 4.47Q25.93 4.96 25.59 5.31L25.59 5.31L25.59 5.31Q25.40 5.50 25.14 5.58L25.14 5.58L25.14 5.58Q24.88 5.66 24.62 5.73L24.62 5.73L24.62 5.73Q24.36 5.81 24.14 5.92L24.14 5.92L24.14 5.92Q23.93 6.02 23.84 6.26L23.84 6.26L23.84 6.26Q23.77 6.03 23.69 5.68L23.69 5.68L23.69 5.68Q23.62 5.33 23.60 4.96L23.60 4.96L23.60 4.96Q23.58 4.58 23.64 4.22L23.64 4.22L23.64 4.22Q23.70 3.86 23.94 3.63L23.94 3.63L23.94 3.63Q24.28 3.29 24.77 3.29ZM29.13 6.27L29.13 7.11L29.13 7.11Q29.25 6.86 29.48 6.68L29.48 6.68L29.48 6.68Q29.71 6.50 29.99 6.37L29.99 6.37L29.99 6.37Q30.27 6.24 30.56 6.17L30.56 6.17L30.56 6.17Q30.86 6.10 31.11 6.09L31.11 6.09L31.11 6.09Q31.64 6.06 32.16 6.24L32.16 6.24L32.16 6.24Q32.68 6.41 33.11 6.85L33.11 6.85L33.11 6.85Q33.74 7.50 33.74 8.74L33.74 8.74L33.74 13.52L31.95 13.52L31.95 13.52Q31.95 13.29 31.95 12.88L31.95 12.88L31.95 12.88Q31.96 12.47 31.96 11.99L31.96 11.99L31.96 11.99Q31.96 11.51 31.96 10.99L31.96 10.99L31.96 10.99Q31.96 10.47 31.95 10.01L31.95 10.01L31.95 10.01Q31.93 9.55 31.91 9.18L31.91 9.18L31.91 9.18Q31.88 8.82 31.84 8.65L31.84 8.65L31.84 8.65Q31.72 8.20 31.41 7.98L31.41 7.98L31.41 7.98Q31.09 7.76 30.73 7.76L30.73 7.76L30.73 7.76Q30.25 7.76 29.99 8.02L29.99 8.02L29.99 8.02Q29.72 8.27 29.72 8.69L29.72 8.69L29.72 8.69Q29.55 8.64 29.39 8.46L29.39 8.46L29.39 8.46Q29.22 8.29 29.13 8.09L29.13 8.09L29.13 8.47L29.13 13.52L27.33 13.52L27.33 6.27L29.13 6.27Z"></path></g><!----><g data-v-423bf9ae="" id="7c1afc11-6640-44f4-99b6-e02102127edf" transform="matrix(2.1944483794046117,0,0,2.1944483794046117,-10.722418970230578,-64.22896875330186)" stroke="none" fill="#0C151D"><path d="M23.943 30.807L5 50.001l18.942 19.192a4.386 4.386 0 0 0 6.258.002 4.522 4.522 0 0 0 .002-6.338L18.193 50.695l-3.624 2.289 15.634-15.841a4.494 4.494 0 0 0 1.295-3.168 4.5 4.5 0 0 0-1.297-3.17 4.387 4.387 0 0 0-6.258.002zM76.057 30.808L95 50.001 76.058 69.193a4.386 4.386 0 0 1-6.258.002 4.522 4.522 0 0 1-.002-6.338l12.009-12.161 3.624 2.289-15.635-15.841a4.494 4.494 0 0 1-1.295-3.168 4.5 4.5 0 0 1 1.297-3.17 4.386 4.386 0 0 1 6.259.002zM60.899 32.352a4.492 4.492 0 0 0-2.366-2.476 4.386 4.386 0 0 0-5.825 2.288l-13.82 32.062a4.496 4.496 0 0 0-.048 3.422 4.492 4.492 0 0 0 2.366 2.476 4.386 4.386 0 0 0 5.825-2.288l13.82-32.062a4.496 4.496 0 0 0 .048-3.422z"></path></g><!----></svg>